<svg width="186" height="61" viewBox="0 0 186 61" fill="none" xmlns="http://www.w3.org/2000/svg">
<circle cx="2.08346" cy="10.3054" r="2.08346" fill="#FFE2AA"/>
<circle cx="102.918" cy="10.3054" r="2.08346" fill="#FFE2AA"/>
<circle cx="2.08346" cy="26.5092" r="2.08346" fill="#FFE2AA"/>
<circle cx="102.918" cy="26.5092" r="2.08346" fill="#FFE2AA"/>
<circle cx="2.08346" cy="42.7129" r="2.08346" fill="#FFE2AA"/>
<circle cx="102.918" cy="42.7129" r="2.08346" fill="#FFE2AA"/>
<circle cx="2.08346" cy="58.9165" r="2.08346" fill="#FFE2AA"/>
<circle cx="102.918" cy="58.9165" r="2.08346" fill="#FFE2AA"/>
<circle cx="22.2504" cy="10.3054" r="2.08346" fill="#FFE2AA"/>
<circle cx="123.085" cy="10.3054" r="2.08346" fill="#FFE2AA"/>
<circle cx="22.2504" cy="26.5092" r="2.08346" fill="#FFE2AA"/>
<circle cx="123.085" cy="26.5092" r="2.08346" fill="#FFE2AA"/>
<circle cx="22.2504" cy="42.7129" r="2.08346" fill="#FFE2AA"/>
<circle cx="123.085" cy="42.7129" r="2.08346" fill="#FFE2AA"/>
<circle cx="22.2504" cy="58.9165" r="2.08346" fill="#FFE2AA"/>
<circle cx="123.085" cy="58.9165" r="2.08346" fill="#FFE2AA"/>
<circle cx="42.4173" cy="10.3054" r="2.08346" fill="#FFE2AA"/>
<circle cx="143.252" cy="10.3054" r="2.08346" fill="#FFE2AA"/>
<circle cx="42.4173" cy="26.5092" r="2.08346" fill="#FFE2AA"/>
<circle cx="143.252" cy="26.5092" r="2.08346" fill="#FFE2AA"/>
<circle cx="42.4173" cy="42.7129" r="2.08346" fill="#FFE2AA"/>
<circle cx="143.252" cy="42.7129" r="2.08346" fill="#FFE2AA"/>
<circle cx="42.4173" cy="58.9165" r="2.08346" fill="#FFE2AA"/>
<circle cx="143.252" cy="58.9165" r="2.08346" fill="#FFE2AA"/>
<circle cx="62.5843" cy="10.3054" r="2.08346" fill="#FFE2AA"/>
<circle cx="163.419" cy="10.3054" r="2.08346" fill="#FFE2AA"/>
<circle cx="62.5843" cy="26.5092" r="2.08346" fill="#FFE2AA"/>
<circle cx="163.419" cy="26.5092" r="2.08346" fill="#FFE2AA"/>
<circle cx="62.5843" cy="42.7129" r="2.08346" fill="#FFE2AA"/>
<circle cx="163.419" cy="42.7129" r="2.08346" fill="#FFE2AA"/>
<circle cx="62.5843" cy="58.9165" r="2.08346" fill="#FFE2AA"/>
<circle cx="163.419" cy="58.9165" r="2.08346" fill="#FFE2AA"/>
<circle cx="82.7512" cy="10.3054" r="2.08346" fill="#FFE2AA"/>
<circle cx="183.586" cy="10.3054" r="2.08346" fill="#FFE2AA"/>
<circle cx="82.7512" cy="26.5092" r="2.08346" fill="#FFE2AA"/>
<circle cx="183.586" cy="26.5092" r="2.08346" fill="#FFE2AA"/>
<circle cx="82.7512" cy="42.7129" r="2.08346" fill="#FFE2AA"/>
<circle cx="183.586" cy="42.7129" r="2.08346" fill="#FFE2AA"/>
<circle cx="82.7512" cy="58.9165" r="2.08346" fill="#FFE2AA"/>
<circle cx="183.586" cy="58.9165" r="2.08346" fill="#FFE2AA"/>
</svg>
